<svg xmlns="http://www.w3.org/2000/svg" width="1600" height="1000" viewBox="0 0 1600 1000" fill="none">
  <defs>
    <linearGradient id="bg3" x1="0" y1="0" x2="1600" y2="1000" gradientUnits="userSpaceOnUse">
      <stop stop-color="#10172B"/>
      <stop offset="1" stop-color="#0B1020"/>
    </linearGradient>
  </defs>
  <rect width="1600" height="1000" fill="url(#bg3)"/>
  <rect x="52" y="52" width="1496" height="896" rx="30" fill="#0F172A" stroke="#334155" stroke-opacity="0.35"/>
  <rect x="76" y="76" width="286" height="848" rx="24" fill="#111827"/>
  <text x="114" y="132" fill="#FFFFFF" font-family="Inter, Arial, sans-serif" font-size="30" font-weight="800">Manager View</text>
  <text x="114" y="162" fill="#9FB0CB" font-family="Inter, Arial, sans-serif" font-size="16">Training oversight + readiness</text>
  <rect x="108" y="212" width="222" height="54" rx="14" fill="#1B2740" stroke="#EF4444" stroke-opacity="0.55"/>
  <text x="136" y="246" fill="#FFFFFF" font-family="Inter, Arial, sans-serif" font-size="18" font-weight="700">Progress View</text>
  <rect x="108" y="286" width="222" height="46" rx="14" fill="#162033"/>
  <text x="136" y="316" fill="#CBD5E1" font-family="Inter, Arial, sans-serif" font-size="17">Coaching Queue</text>
  <rect x="108" y="348" width="222" height="46" rx="14" fill="#162033"/>
  <text x="136" y="378" fill="#CBD5E1" font-family="Inter, Arial, sans-serif" font-size="17">Template Usage</text>

  <rect x="390" y="76" width="1132" height="86" rx="24" fill="#111827"/>
  <text x="426" y="122" fill="#FFFFFF" font-family="Inter, Arial, sans-serif" font-size="34" font-weight="800">Manager Progress View</text>
  <text x="426" y="147" fill="#9FB0CB" font-family="Inter, Arial, sans-serif" font-size="18">Oversight of onboarding progress, blockers, and support needs across the team</text>
  <rect x="1286" y="96" width="200" height="44" rx="14" fill="#162033" stroke="#22C55E" stroke-opacity="0.55"/>
  <text x="1320" y="124" fill="#E5EEFB" font-family="Inter, Arial, sans-serif" font-size="16" font-weight="700">Cohort: Q2 Starters</text>

  <rect x="390" y="186" width="1132" height="740" rx="28" fill="#10172B" stroke="#334155" stroke-opacity="0.25"/>
  <rect x="420" y="216" width="1092" height="160" rx="22" fill="#111827"/>
  <text x="450" y="258" fill="#FFFFFF" font-family="Inter, Arial, sans-serif" font-size="22" font-weight="800">Team Readiness Snapshot</text>
  <rect x="450" y="286" width="220" height="64" rx="18" fill="#162033"/>
  <text x="474" y="316" fill="#22C55E" font-family="Inter, Arial, sans-serif" font-size="30" font-weight="800">86%</text>
  <text x="474" y="340" fill="#DCE8FB" font-family="Inter, Arial, sans-serif" font-size="15">average readiness</text>
  <rect x="692" y="286" width="220" height="64" rx="18" fill="#162033"/>
  <text x="716" y="316" fill="#F97316" font-family="Inter, Arial, sans-serif" font-size="30" font-weight="800">5</text>
  <text x="716" y="340" fill="#DCE8FB" font-family="Inter, Arial, sans-serif" font-size="15">coaching flags</text>
  <rect x="934" y="286" width="220" height="64" rx="18" fill="#162033"/>
  <text x="958" y="316" fill="#EF4444" font-family="Inter, Arial, sans-serif" font-size="30" font-weight="800">2</text>
  <text x="958" y="340" fill="#DCE8FB" font-family="Inter, Arial, sans-serif" font-size="15">blocked learners</text>
  <rect x="1176" y="286" width="306" height="64" rx="18" fill="#162033"/>
  <text x="1200" y="316" fill="#FFFFFF" font-family="Inter, Arial, sans-serif" font-size="18" font-weight="700">Biggest gap: exception handling</text>
  <text x="1200" y="340" fill="#9FB0CB" font-family="Inter, Arial, sans-serif" font-size="15">AI suggests a targeted scenario drill</text>

  <rect x="420" y="404" width="748" height="492" rx="22" fill="#111827"/>
  <text x="450" y="446" fill="#FFFFFF" font-family="Inter, Arial, sans-serif" font-size="22" font-weight="800">Learner Progress</text>
  <rect x="450" y="472" width="688" height="66" rx="16" fill="#162033"/>
  <text x="476" y="500" fill="#E5EEFB" font-family="Inter, Arial, sans-serif" font-size="17" font-weight="700">Taylor M. — Escrow Assistant</text>
  <text x="476" y="525" fill="#9FB0CB" font-family="Inter, Arial, sans-serif" font-size="15">Strong intake progress · Needs support with exception escalation</text>
  <rect x="932" y="492" width="176" height="12" rx="6" fill="#1B2740"/><rect x="932" y="492" width="138" height="12" rx="6" fill="#22C55E"/>
  <text x="932" y="527" fill="#E5EEFB" font-family="Inter, Arial, sans-serif" font-size="15">78% complete</text>

  <rect x="450" y="556" width="688" height="66" rx="16" fill="#162033"/>
  <text x="476" y="584" fill="#E5EEFB" font-family="Inter, Arial, sans-serif" font-size="17" font-weight="700">Jordan A. — Officer Support</text>
  <text x="476" y="609" fill="#9FB0CB" font-family="Inter, Arial, sans-serif" font-size="15">Ahead on templates · Blocked on funding readiness review</text>
  <rect x="932" y="576" width="176" height="12" rx="6" fill="#1B2740"/><rect x="932" y="576" width="112" height="12" rx="6" fill="#F97316"/>
  <text x="932" y="611" fill="#E5EEFB" font-family="Inter, Arial, sans-serif" font-size="15">64% complete</text>

  <rect x="450" y="640" width="688" height="66" rx="16" fill="#162033"/>
  <text x="476" y="668" fill="#E5EEFB" font-family="Inter, Arial, sans-serif" font-size="17" font-weight="700">Morgan S. — Closer Track</text>
  <text x="476" y="693" fill="#9FB0CB" font-family="Inter, Arial, sans-serif" font-size="15">On pace · Needs more practice with package review scenarios</text>
  <rect x="932" y="660" width="176" height="12" rx="6" fill="#1B2740"/><rect x="932" y="660" width="154" height="12" rx="6" fill="#22C55E"/>
  <text x="932" y="695" fill="#E5EEFB" font-family="Inter, Arial, sans-serif" font-size="15">87% complete</text>

  <rect x="1194" y="404" width="288" height="492" rx="22" fill="#111827"/>
  <text x="1222" y="446" fill="#FFFFFF" font-family="Inter, Arial, sans-serif" font-size="22" font-weight="800">AI Support Queue</text>
  <rect x="1222" y="474" width="232" height="104" rx="18" fill="#162033"/>
  <text x="1242" y="508" fill="#F97316" font-family="Inter, Arial, sans-serif" font-size="16" font-weight="700">Recommended Coaching</text>
  <text x="1242" y="538" fill="#DCE8FB" font-family="Inter, Arial, sans-serif" font-size="15">Run “missing payoff” drill for</text>
  <text x="1242" y="562" fill="#DCE8FB" font-family="Inter, Arial, sans-serif" font-size="15">Taylor and Jordan this week.</text>
  <rect x="1222" y="596" width="232" height="104" rx="18" fill="#162033"/>
  <text x="1242" y="630" fill="#22C55E" font-family="Inter, Arial, sans-serif" font-size="16" font-weight="700">Knowledge Insight</text>
  <text x="1242" y="660" fill="#DCE8FB" font-family="Inter, Arial, sans-serif" font-size="15">Exception handling content is</text>
  <text x="1242" y="684" fill="#DCE8FB" font-family="Inter, Arial, sans-serif" font-size="15">the most searched topic this month.</text>
  <rect x="1222" y="718" width="232" height="104" rx="18" fill="#162033"/>
  <text x="1242" y="752" fill="#FFFFFF" font-family="Inter, Arial, sans-serif" font-size="16" font-weight="700">Next action</text>
  <text x="1242" y="782" fill="#DCE8FB" font-family="Inter, Arial, sans-serif" font-size="15">Assign scenario practice pack</text>
  <text x="1242" y="806" fill="#DCE8FB" font-family="Inter, Arial, sans-serif" font-size="15">to all Q2 starters.</text>
</svg>