<svg xmlns="http://www.w3.org/2000/svg" width="1600" height="1000" viewBox="0 0 1600 1000" fill="none">
  <defs>
    <linearGradient id="bg1" x1="0" y1="0" x2="1600" y2="1000" gradientUnits="userSpaceOnUse">
      <stop stop-color="#10172B"/>
      <stop offset="1" stop-color="#0B1020"/>
    </linearGradient>
    <linearGradient id="accent1" x1="300" y1="180" x2="1400" y2="760" gradientUnits="userSpaceOnUse">
      <stop stop-color="#F97316" stop-opacity="0.18"/>
      <stop offset="0.55" stop-color="#22C55E" stop-opacity="0.12"/>
      <stop offset="1" stop-color="#EF4444" stop-opacity="0.10"/>
    </linearGradient>
  </defs>
  <rect width="1600" height="1000" fill="url(#bg1)"/>
  <rect x="52" y="52" width="1496" height="896" rx="30" fill="#0F172A" stroke="#334155" stroke-opacity="0.35"/>
  <rect x="76" y="76" width="270" height="848" rx="24" fill="#111827"/>
  <text x="112" y="136" fill="#FFFFFF" font-family="Inter, Arial, sans-serif" font-size="30" font-weight="800">Escrow OS</text>
  <text x="112" y="165" fill="#F97316" font-family="Inter, Arial, sans-serif" font-size="15" font-weight="700">Onboarding Playbook</text>
  <rect x="108" y="210" width="206" height="54" rx="14" fill="#1B2740" stroke="#F97316" stroke-opacity="0.65"/>
  <text x="136" y="244" fill="#FFFFFF" font-family="Inter, Arial, sans-serif" font-size="18" font-weight="700">Role Dashboard</text>
  <rect x="108" y="284" width="206" height="48" rx="14" fill="#162033"/>
  <text x="136" y="314" fill="#CBD5E1" font-family="Inter, Arial, sans-serif" font-size="17">Template Library</text>
  <rect x="108" y="348" width="206" height="48" rx="14" fill="#162033"/>
  <text x="136" y="378" fill="#CBD5E1" font-family="Inter, Arial, sans-serif" font-size="17">Scenario Coach</text>
  <rect x="108" y="412" width="206" height="48" rx="14" fill="#162033"/>
  <text x="136" y="442" fill="#CBD5E1" font-family="Inter, Arial, sans-serif" font-size="17">Manager View</text>
  <rect x="108" y="494" width="206" height="150" rx="18" fill="#0F172A" stroke="#334155" stroke-opacity="0.35"/>
  <text x="128" y="528" fill="#FFFFFF" font-family="Inter, Arial, sans-serif" font-size="18" font-weight="700">Ramp health</text>
  <text x="128" y="566" fill="#22C55E" font-family="Inter, Arial, sans-serif" font-size="42" font-weight="800">82%</text>
  <text x="128" y="600" fill="#9FB0CB" font-family="Inter, Arial, sans-serif" font-size="16">Average readiness across new hires</text>
  <rect x="370" y="76" width="1154" height="86" rx="24" fill="#111827"/>
  <text x="404" y="122" fill="#FFFFFF" font-family="Inter, Arial, sans-serif" font-size="34" font-weight="800">Role Dashboard</text>
  <text x="404" y="147" fill="#9FB0CB" font-family="Inter, Arial, sans-serif" font-size="18">Guided onboarding for new escrow assistants and junior officers</text>
  <rect x="1318" y="98" width="170" height="42" rx="12" fill="#1B2740" stroke="#22C55E" stroke-opacity="0.55"/>
  <text x="1350" y="124" fill="#E5EEFB" font-family="Inter, Arial, sans-serif" font-size="16" font-weight="700">Week 2 of 6</text>
  <rect x="370" y="184" width="1154" height="740" rx="28" fill="url(#accent1)" stroke="#334155" stroke-opacity="0.2"/>
  <text x="410" y="240" fill="#FFFFFF" font-family="Inter, Arial, sans-serif" font-size="24" font-weight="800">Welcome back, New Escrow Assistant</text>
  <text x="410" y="270" fill="#D8E5F8" font-family="Inter, Arial, sans-serif" font-size="18">Your next learning path is based on real title workflows and current stage progress.</text>

  <rect x="410" y="308" width="340" height="230" rx="24" fill="#111827" stroke="#334155" stroke-opacity="0.35"/>
  <text x="438" y="350" fill="#FFFFFF" font-family="Inter, Arial, sans-serif" font-size="22" font-weight="800">Current Path</text>
  <text x="438" y="387" fill="#F97316" font-family="Inter, Arial, sans-serif" font-size="18" font-weight="700">Open File + Intake Review</text>
  <rect x="438" y="416" width="284" height="14" rx="7" fill="#1B2740"/>
  <rect x="438" y="416" width="188" height="14" rx="7" fill="#22C55E"/>
  <text x="438" y="460" fill="#E5EEFB" font-family="Inter, Arial, sans-serif" font-size="18">4 of 6 tasks complete</text>
  <text x="438" y="492" fill="#9FB0CB" font-family="Inter, Arial, sans-serif" font-size="16">Next: verify contract data and identify missing lender fields.</text>
  <rect x="438" y="508" width="178" height="44" rx="14" fill="#F97316"/>
  <text x="478" y="536" fill="#FFFFFF" font-family="Inter, Arial, sans-serif" font-size="17" font-weight="700">Resume Path</text>

  <rect x="776" y="308" width="356" height="230" rx="24" fill="#111827" stroke="#334155" stroke-opacity="0.35"/>
  <text x="804" y="350" fill="#FFFFFF" font-family="Inter, Arial, sans-serif" font-size="22" font-weight="800">Today’s Checklist</text>
  <circle cx="820" cy="392" r="8" fill="#22C55E"/><text x="842" y="398" fill="#E5EEFB" font-family="Inter, Arial, sans-serif" font-size="17">Review purchase contract and addenda</text>
  <circle cx="820" cy="432" r="8" fill="#22C55E"/><text x="842" y="438" fill="#E5EEFB" font-family="Inter, Arial, sans-serif" font-size="17">Confirm buyer / seller fields in order</text>
  <circle cx="820" cy="472" r="8" fill="#F97316"/><text x="842" y="478" fill="#E5EEFB" font-family="Inter, Arial, sans-serif" font-size="17">Flag missing HOA and payoff details</text>
  <circle cx="820" cy="512" r="8" fill="#334155"/><text x="842" y="518" fill="#E5EEFB" font-family="Inter, Arial, sans-serif" font-size="17">Escalation scenario practice</text>

  <rect x="1158" y="308" width="326" height="230" rx="24" fill="#111827" stroke="#334155" stroke-opacity="0.35"/>
  <text x="1186" y="350" fill="#FFFFFF" font-family="Inter, Arial, sans-serif" font-size="22" font-weight="800">AI Coach</text>
  <rect x="1186" y="374" width="270" height="124" rx="18" fill="#162033"/>
  <text x="1206" y="408" fill="#E5EEFB" font-family="Inter, Arial, sans-serif" font-size="16">“The contract is missing lender contact info.</text>
  <text x="1206" y="434" fill="#E5EEFB" font-family="Inter, Arial, sans-serif" font-size="16">Would you like the standard follow-up email</text>
  <text x="1206" y="460" fill="#E5EEFB" font-family="Inter, Arial, sans-serif" font-size="16">template or the escalation checklist?”</text>
  <rect x="1186" y="514" width="120" height="40" rx="12" fill="#1B2740" stroke="#22C55E" stroke-opacity="0.5"/>
  <text x="1218" y="539" fill="#E5EEFB" font-family="Inter, Arial, sans-serif" font-size="15" font-weight="700">Template</text>
  <rect x="1322" y="514" width="134" height="40" rx="12" fill="#1B2740" stroke="#F97316" stroke-opacity="0.55"/>
  <text x="1350" y="539" fill="#E5EEFB" font-family="Inter, Arial, sans-serif" font-size="15" font-weight="700">Escalation</text>

  <rect x="410" y="566" width="540" height="310" rx="24" fill="#111827" stroke="#334155" stroke-opacity="0.35"/>
  <text x="438" y="608" fill="#FFFFFF" font-family="Inter, Arial, sans-serif" font-size="22" font-weight="800">Role Cards</text>
  <rect x="438" y="632" width="152" height="204" rx="18" fill="#162033"/>
  <text x="460" y="670" fill="#F97316" font-family="Inter, Arial, sans-serif" font-size="18" font-weight="700">Assistant</text>
  <text x="460" y="706" fill="#DCE8FB" font-family="Inter, Arial, sans-serif" font-size="15">Open files</text>
  <text x="460" y="732" fill="#DCE8FB" font-family="Inter, Arial, sans-serif" font-size="15">Validate intake</text>
  <text x="460" y="758" fill="#DCE8FB" font-family="Inter, Arial, sans-serif" font-size="15">Prep requests</text>
  <rect x="618" y="632" width="152" height="204" rx="18" fill="#162033"/>
  <text x="648" y="670" fill="#22C55E" font-family="Inter, Arial, sans-serif" font-size="18" font-weight="700">Closer</text>
  <text x="640" y="706" fill="#DCE8FB" font-family="Inter, Arial, sans-serif" font-size="15">Schedule signings</text>
  <text x="640" y="732" fill="#DCE8FB" font-family="Inter, Arial, sans-serif" font-size="15">Review packages</text>
  <text x="640" y="758" fill="#DCE8FB" font-family="Inter, Arial, sans-serif" font-size="15">Funding readiness</text>
  <rect x="798" y="632" width="124" height="204" rx="18" fill="#162033"/>
  <text x="818" y="670" fill="#EF4444" font-family="Inter, Arial, sans-serif" font-size="18" font-weight="700">Officer</text>
  <text x="818" y="706" fill="#DCE8FB" font-family="Inter, Arial, sans-serif" font-size="15">Escalations</text>
  <text x="818" y="732" fill="#DCE8FB" font-family="Inter, Arial, sans-serif" font-size="15">Approvals</text>
  <text x="818" y="758" fill="#DCE8FB" font-family="Inter, Arial, sans-serif" font-size="15">Mentoring</text>

  <rect x="976" y="566" width="508" height="310" rx="24" fill="#111827" stroke="#334155" stroke-opacity="0.35"/>
  <text x="1004" y="608" fill="#FFFFFF" font-family="Inter, Arial, sans-serif" font-size="22" font-weight="800">Recent Wins</text>
  <rect x="1004" y="632" width="452" height="62" rx="16" fill="#162033"/>
  <text x="1030" y="671" fill="#E5EEFB" font-family="Inter, Arial, sans-serif" font-size="16">Completed first independent file-opening review</text>
  <rect x="1004" y="710" width="452" height="62" rx="16" fill="#162033"/>
  <text x="1030" y="749" fill="#E5EEFB" font-family="Inter, Arial, sans-serif" font-size="16">Passed intake quality checkpoint with 94% accuracy</text>
  <rect x="1004" y="788" width="452" height="62" rx="16" fill="#162033"/>
  <text x="1030" y="827" fill="#E5EEFB" font-family="Inter, Arial, sans-serif" font-size="16">Completed escalation practice for missing payoff items</text>
</svg>